<svg height="512pt" viewBox="-15 0 512 512.001" width="512pt" xmlns="http://www.w3.org/2000/svg"><path d="m101.523438 372.6875c-12.804688 0-23.28125-10.476562-23.28125-23.28125v-76.449219h-12.71875c-12.804688 0-23.28125 10.476563-23.28125 23.28125v66.171875c0 2.492188-1.351563 4.789063-3.535157 5.996094l-36.390625 20.144531c-3.089844 1.707031-3.089844 6.148438 0 7.855469l35.570313 19.691406c2.6875 1.484375 4.355469 4.3125 4.355469 7.386719v65.238281c0 12.800782 10.476562 23.277344 23.28125 23.277344h317.558593c12.804688 0 23.277344-10.476562 23.277344-23.277344v-116.035156zm0 0" fill="#54a0ff"/><path d="m64.394531 488.722656v-65.238281c0-3.074219-1.667969-5.902344-4.355469-7.386719l-35.574218-19.691406c-3.085938-1.707031-3.085938-6.148438 0-7.855469l36.394531-20.144531c2.179687-1.207031 3.535156-3.503906 3.535156-5.996094v-66.175781c0-9.449219 5.710938-17.628906 13.847657-21.265625v-2.011719h-12.71875c-12.804688 0-23.28125 10.472657-23.28125 23.277344v66.175781c0 2.492188-1.355469 4.789063-3.535157 5.996094l-36.390625 20.144531c-3.085937 1.707031-3.085937 6.148438 0 7.855469l35.570313 19.691406c2.6875 1.484375 4.355469 4.3125 4.355469 7.386719v65.238281c0 12.800782 10.476562 23.277344 23.28125 23.277344h22.148437c-12.804687 0-23.277344-10.476562-23.277344-23.277344zm0 0" fill="#338def"/><path d="m78.242188 163.101562c0-12.804687 10.476562-23.277343 23.28125-23.277343h304.835937v-116.546875c0-12.800782-10.476563-23.277344-23.277344-23.277344h-317.558593c-12.804688 0-23.28125 10.476562-23.28125 23.277344v65.238281c0 3.074219-1.667969 5.902344-4.355469 7.386719l-35.570313 19.691406c-3.089844 1.707031-3.089844 6.148438 0 7.855469l36.390625 20.144531c2.179688 1.207031 3.535157 3.503906 3.535157 5.996094v66.175781c0 12.804687 10.476562 23.277344 23.28125 23.277344h12.71875zm0 0" fill="#feca57"/><path d="m64.394531 215.765625v-66.175781c0-2.492188-1.355469-4.789063-3.535156-5.996094l-36.394531-20.144531c-3.085938-1.707031-3.085938-6.148438 0-7.855469l35.574218-19.691406c2.6875-1.484375 4.355469-4.3125 4.355469-7.386719v-65.238281c0-12.800782 10.472657-23.277344 23.277344-23.277344h-22.148437c-12.804688 0-23.28125 10.476562-23.28125 23.277344v65.238281c0 3.074219-1.667969 5.902344-4.355469 7.386719l-35.570313 19.691406c-3.085937 1.707031-3.085937 6.148438 0 7.855469l36.390625 20.144531c2.179688 1.207031 3.535157 3.503906 3.535157 5.996094v66.175781c0 12.804687 10.476562 23.277344 23.28125 23.277344h12.71875v-2.011719c-8.136719-3.640625-13.847657-11.816406-13.847657-21.265625zm0 0" fill="#f4b537"/><path d="m358.402344 450.3125h-270.570313c-4.265625 0-7.726562-3.460938-7.726562-7.726562 0-4.269532 3.460937-7.726563 7.726562-7.726563h270.570313c4.265625 0 7.726562 3.457031 7.726562 7.726563 0 4.265624-3.457031 7.726562-7.726562 7.726562zm0 0" fill="#338def"/><path d="m358.402344 416.90625h-270.570313c-4.265625 0-7.726562-3.457031-7.726562-7.726562 0-4.269532 3.460937-7.726563 7.726562-7.726563h270.570313c4.265625 0 7.726562 3.457031 7.726562 7.726563 0 4.269531-3.457031 7.726562-7.726562 7.726562zm0 0" fill="#338def"/><path d="m358.402344 483.714844h-270.570313c-4.265625 0-7.726562-3.457032-7.726562-7.726563 0-4.265625 3.460937-7.726562 7.726562-7.726562h270.570313c4.265625 0 7.726562 3.460937 7.726562 7.726562 0 4.269531-3.457031 7.726563-7.726562 7.726563zm0 0" fill="#338def"/><path d="m358.402344 77.140625h-270.570313c-4.265625 0-7.726562-3.457031-7.726562-7.726563 0-4.265624 3.460937-7.726562 7.726562-7.726562h270.570313c4.265625 0 7.726562 3.460938 7.726562 7.726562 0 4.269532-3.457031 7.726563-7.726562 7.726563zm0 0" fill="#f4b537"/><path d="m358.402344 110.546875h-270.570313c-4.265625 0-7.726562-3.460937-7.726562-7.726563 0-4.269531 3.460937-7.726562 7.726562-7.726562h270.570313c4.265625 0 7.726562 3.457031 7.726562 7.726562 0 4.265626-3.457031 7.726563-7.726562 7.726563zm0 0" fill="#f4b537"/><path d="m358.402344 43.738281h-270.570313c-4.265625 0-7.726562-3.460937-7.726562-7.726562 0-4.269531 3.460937-7.726563 7.726562-7.726563h270.570313c4.265625 0 7.726562 3.457032 7.726562 7.726563 0 4.265625-3.457031 7.726562-7.726562 7.726562zm0 0" fill="#f4b537"/><path d="m479.195312 252.324219-36.390624-20.140625c-2.179688-1.207032-3.535157-3.503906-3.535157-6v-66.171875c0-12.804688-10.476562-23.28125-23.277343-23.28125h-317.558594c-12.804688 0-23.28125 10.476562-23.28125 23.28125v192.484375c0 12.804687 10.476562 23.277344 23.28125 23.277344h317.558594c12.804687 0 23.277343-10.476563 23.277343-23.277344v-65.238282c0-3.070312 1.667969-5.898437 4.355469-7.386718l35.574219-19.691406c3.085937-1.707032 3.085937-6.144532-.003907-7.855469zm0 0" fill="#1dd1a1"/><g fill="#15ba8b"><path d="m97.300781 352.496094v-192.484375c0-12.804688 10.476563-23.28125 23.28125-23.28125h-22.148437c-12.804688 0-23.28125 10.476562-23.28125 23.28125v192.484375c0 12.804687 10.476562 23.277344 23.28125 23.277344h22.148437c-12.804687.003906-23.28125-10.472657-23.28125-23.277344zm0 0"/><path d="m393.679688 213.875h-270.570313c-4.265625 0-7.726563-3.460938-7.726563-7.726562 0-4.269532 3.460938-7.726563 7.726563-7.726563h270.570313c4.265624 0 7.726562 3.457031 7.726562 7.726563 0 4.265624-3.460938 7.726562-7.726562 7.726562zm0 0"/><path d="m393.679688 314.085938h-270.570313c-4.265625 0-7.726563-3.457032-7.726563-7.726563 0-4.265625 3.460938-7.726563 7.726563-7.726563h270.570313c4.265624 0 7.726562 3.460938 7.726562 7.726563 0 4.269531-3.460938 7.726563-7.726562 7.726563zm0 0"/><path d="m393.679688 280.683594h-270.570313c-4.265625 0-7.726563-3.460938-7.726563-7.726563 0-4.269531 3.460938-7.726562 7.726563-7.726562h270.570313c4.265624 0 7.726562 3.457031 7.726562 7.726562 0 4.265625-3.460938 7.726563-7.726562 7.726563zm0 0"/><path d="m393.679688 347.492188h-270.570313c-4.265625 0-7.726563-3.460938-7.726563-7.726563 0-4.269531 3.460938-7.726563 7.726563-7.726563h270.570313c4.265624 0 7.726562 3.457032 7.726562 7.726563 0 4.265625-3.460938 7.726563-7.726562 7.726563zm0 0"/><path d="m393.679688 247.277344h-270.570313c-4.265625 0-7.726563-3.457032-7.726563-7.726563 0-4.265625 3.460938-7.726562 7.726563-7.726562h270.570313c4.265624 0 7.726562 3.460937 7.726562 7.726562 0 4.269531-3.460938 7.726563-7.726562 7.726563zm0 0"/><path d="m393.679688 180.46875h-270.570313c-4.265625 0-7.726563-3.457031-7.726563-7.726562 0-4.265626 3.460938-7.726563 7.726563-7.726563h270.570313c4.265624 0 7.726562 3.460937 7.726562 7.726563 0 4.269531-3.460938 7.726562-7.726562 7.726562zm0 0"/></g></svg>