<?xml version="1.0" encoding="iso-8859-1"?>
<!-- Generator: Adobe Illustrator 19.0.0, SVG Export Plug-In . SVG Version: 6.00 Build 0)  -->
<svg version="1.1" id="Capa_1" xmlns="http://www.w3.org/2000/svg" xmlns:xlink="http://www.w3.org/1999/xlink" x="0px" y="0px"
	 viewBox="0 0 512 512" style="enable-background:new 0 0 512 512;" xml:space="preserve">
<path style="fill:#841F19;" d="M414.897,344.276v-17.655c0-5.297-3.531-8.828-8.828-8.828h-70.621c-5.297,0-8.828,3.531-8.828,8.828
	v17.655c0,5.297,3.531,8.828,8.828,8.828h70.621C411.366,353.103,414.897,349.572,414.897,344.276z"/>
<path style="fill:#364061;" d="M382.234,281.6c-4.414,0.883-7.945,0.883-11.476,0.883c-4.414,0-8.828,0-13.241-0.883
	c-0.883,0-1.766,0-3.531,0c-0.883,0-0.883,0-1.766,0v36.193h35.31V281.6C386.648,281.6,384,281.6,382.234,281.6z"/>
<path style="fill:#841F19;" d="M335.448,476.69c0,19.421,15.89,35.31,35.31,35.31c19.421,0,35.31-15.89,35.31-35.31V353.103h-70.621
	V476.69z"/>
<path style="fill:#DB8D07;" d="M232.166,167.724h-2.648c-29.131,0-52.966-23.834-52.966-52.966l-5.297,0.883
	c-6.179,0.883-11.476,2.648-17.655,4.414c-2.648,0.883-5.297,1.766-7.945,2.648c-2.648,0.883-6.179,1.766-8.828,2.648
	c-3.531,0.883-7.062,2.648-10.593,3.531c-1.766,0.883-4.414,1.766-6.179,2.648c-4.414,1.766-7.945,3.531-11.476,4.414
	c-1.766,0.883-2.648,0.883-4.414,1.766c-4.414,1.766-8.828,3.531-13.241,6.179c-0.883,0-1.766,0.883-2.648,0.883
	c-4.414,2.648-8.828,4.414-14.124,7.062c-0.883,0-0.883,0.883-1.766,0.883c-4.414,2.648-9.71,5.297-14.124,7.945c0,0,0,0-0.883,0
	c-5.297,2.648-9.71,6.179-14.124,8.828c0.883,38.841,17.655,75.034,47.669,99.752l0,0c1.766,1.766,3.531,2.648,5.297,4.414l0,0
	c1.766,0.883,3.531,2.648,5.297,3.531l0.883,0.883c1.766,0.883,3.531,1.766,5.297,2.648c0.883,0,0.883,0.883,1.766,0.883
	c1.766,0.883,3.531,1.766,5.297,2.648c0.883,0,0.883,0.883,1.766,0.883c1.766,0.883,3.531,0.883,5.297,1.766
	c0.883,0,0.883,0,1.766,0.883c1.766,0.883,3.531,0.883,5.297,1.766c0.883,0,0.883,0,1.766,0c1.766,0,3.531,0.883,5.297,0.883h0.883
	c8.828,0.883,17.655,0.883,26.483,0h0.883c1.766,0,3.531-0.883,5.297-0.883c0.883,0,0.883,0,1.766,0
	c1.766,0,3.531-0.883,5.297-1.766c0.883,0,0.883,0,1.766-0.883c1.766-0.883,3.531-0.883,5.297-1.766
	c0.883,0,0.883-0.883,1.766-0.883c1.766-0.883,3.531-1.766,5.297-2.648c0.883,0,0.883-0.883,1.766-0.883
	c1.766-0.883,3.531-1.766,5.297-2.648l0.883-0.883c1.766-0.883,3.531-1.766,5.297-3.531l0,0c1.766-1.766,3.531-2.648,5.297-4.414
	l0,0c18.538-15.89,32.662-35.31,39.724-58.262l0,0C240.993,198.621,234.814,183.614,232.166,167.724L232.166,167.724z"/>
<path style="fill:#364061;" d="M353.103,281.6c1.766,0,4.414,0.883,6.179,0.883c3.531,0,7.062,0.883,11.476,0.883
	s7.062,0,11.476-0.883c1.766,0,4.414,0,6.179-0.883l0,0C458.152,272.772,512,213.628,512,141.241C512,63.559,448.441,0,370.759,0
	C311.614,0,261.297,36.193,240.11,87.393l0,0c-3.531,7.945-6.179,16.772-7.945,25.6c0,0.883,0,1.766,0,1.766
	c-0.883,3.531-1.766,7.945-1.766,11.476c-0.883,5.297-0.883,10.593-0.883,15.007s0,8.828,0.883,13.241
	c0,4.414,0.883,8.828,1.766,13.241c2.648,15.89,8.828,30.897,16.772,44.138c2.648,5.297,6.179,9.71,9.71,14.124l0.883,0.883
	c1.766,2.648,3.531,4.414,5.297,6.179l0.883,0.883c3.531,3.531,7.062,7.062,10.593,10.593c0.883,0.883,1.766,1.766,2.648,2.648
	c1.766,1.766,3.531,2.648,5.297,4.414c0.883,0.883,2.648,1.766,4.414,2.648c2.648,1.766,5.297,3.531,7.945,5.297
	c1.766,0.883,3.531,2.648,5.297,3.531c1.766,0.883,3.531,1.766,4.414,2.648c2.648,1.766,5.297,2.648,7.945,3.531
	c1.766,0.883,2.648,0.883,4.414,1.766c2.648,0.883,6.179,2.648,8.828,3.531c0.883,0,2.648,0.883,3.531,0.883
	c3.531,0.883,7.062,1.766,11.476,2.648h0.883C346.041,280.717,349.572,280.717,353.103,281.6L353.103,281.6z M264.828,141.241
	c0-58.262,47.669-105.931,105.931-105.931S476.69,82.979,476.69,141.241s-47.669,105.931-105.931,105.931
	S264.828,199.503,264.828,141.241z"/>
<path style="fill:#DDDDDB;" d="M370.759,247.172c58.262,0,105.931-47.669,105.931-105.931S429.021,35.31,370.759,35.31
	S264.828,82.979,264.828,141.241S312.497,247.172,370.759,247.172z"/>
<path style="fill:#DB8D07;" d="M196.855,278.069c-1.766,0.883-3.531,1.766-5.297,2.648c-0.883,0-0.883,0.883-1.766,0.883
	c-1.766,0.883-3.531,1.766-5.297,2.648c-0.883,0-0.883,0.883-1.766,0.883c-1.766,0.883-3.531,0.883-5.297,1.766
	c-0.883,0-0.883,0-1.766,0.883c-1.766,0.883-3.531,0.883-5.297,1.766c-0.883,0-0.883,0-1.766,0c-1.766,0-3.531,0.883-5.297,0.883
	h-0.883c-8.828,0.883-17.655,0.883-26.483,0h-0.883c-1.766,0-3.531-0.883-5.297-0.883c-0.883,0-0.883,0-1.766,0
	c-1.766,0-3.531-0.883-5.297-1.766c-0.883,0-0.883,0-1.766-0.883c-1.766-0.883-3.531-0.883-5.297-1.766
	c-0.883,0-0.883-0.883-1.766-0.883c-1.766-0.883-3.531-1.766-5.297-2.648c-0.883,0-0.883-0.883-1.766-0.883
	c-1.766-0.883-3.531-1.766-5.297-2.648l-0.883-0.883c-1.766-0.883-3.531-1.766-5.297-3.531v44.138v17.655l52.966,26.483
	l52.966-26.483v-17.655v-43.255c-1.766,0.883-3.531,2.648-5.297,3.531C197.738,278.069,196.855,278.069,196.855,278.069z"/>
<path style="fill:#7E3B04;" d="M73.269,152.717c0.883,0,0.883-0.883,1.766-0.883c4.414-2.648,8.828-4.414,14.124-7.062
	c0.883,0,1.766-0.883,2.648-0.883c4.414-1.766,8.828-4.414,13.241-6.179c1.766-0.883,2.648-0.883,4.414-1.766
	c3.531-1.766,7.945-3.531,11.476-4.414c1.766-0.883,4.414-1.766,6.179-2.648c3.531-0.883,7.062-2.648,10.593-3.531
	c2.648-0.883,6.179-1.766,8.828-2.648s5.297-1.766,7.945-2.648c6.179-1.766,11.476-2.648,17.655-4.414l4.414-0.883
	c0,29.131,23.834,52.966,52.966,52.966h2.648l0,0c-0.883-4.414-1.766-8.828-1.766-13.241c-0.883-4.414-0.883-8.828-0.883-13.241
	s0-9.71,0.883-14.124c0-3.531,0.883-7.945,1.766-11.476c0-0.883,0-1.766,0-1.766c1.766-8.828,4.414-17.655,7.945-25.6
	c-21.186-27.366-53.848-44.138-90.041-44.138c-63.559,0-114.759,51.2-114.759,114.759v17.655
	c7.945-5.297,15.007-10.593,22.952-15.007c0,0,0,0,0.883,0C63.559,158.014,68.855,155.366,73.269,152.717z"/>
<g>
	<polygon style="fill:#DDDDDB;" points="150.069,361.931 176.552,459.034 150.069,512 203.034,512 203.034,379.586 203.034,335.448 
			"/>
	<polygon style="fill:#DDDDDB;" points="150.069,361.931 97.103,335.448 97.103,379.586 97.103,512 150.069,512 123.586,459.034 	
		"/>
</g>
<polygon style="fill:#364061;" points="150.069,361.931 123.586,459.034 150.069,512 176.552,459.034 "/>
<g style="opacity:0.3;enable-background:new    ;">
	<rect x="335.448" y="353.103" width="70.621" height="8.828"/>
</g>
<g style="enable-background:new    ;">
	<g style="opacity:0.3;">
		<path d="M382.234,281.6c-4.414,0.883-7.945,0.883-11.476,0.883c-4.414,0-8.828,0-13.241-0.883c-0.883,0-1.766,0-3.531,0
			c-0.883,0-0.883,0-1.766,0v8.828c1.766,0,4.414,0.883,6.179,0.883c3.531,0,7.062,0.883,11.476,0.883s7.062,0,11.476-0.883
			c1.766,0,4.414,0,6.179-0.883V281.6C386.648,281.6,384,281.6,382.234,281.6z"/>
	</g>
	<g style="opacity:0.3;">
		<path d="M197.738,278.069l-0.883,0.883c-1.766,0.883-3.531,1.766-5.297,2.648c-0.883,0-0.883,0.883-1.766,0.883
			c-1.766,0.883-3.531,1.766-5.297,2.648c-0.883,0-0.883,0.883-1.766,0.883c-1.766,0.883-3.531,0.883-5.297,1.766
			c-0.883,0-0.883,0-1.766,0.883c-1.766,0.883-3.531,0.883-5.297,1.766c-0.883,0-0.883,0-1.766,0c-1.766,0-3.531,0.883-5.297,0.883
			h-0.883c-8.828,0.883-17.655,0.883-26.483,0h-0.883c-1.766,0-3.531-0.883-5.297-0.883c-0.883,0-0.883,0-1.766,0
			c-1.766,0-3.531-0.883-5.297-1.766c-0.883,0-0.883,0-1.766-0.883c-1.766-0.883-3.531-0.883-5.297-1.766
			c-0.883,0-0.883-0.883-1.766-0.883c-1.766-0.883-3.531-1.766-5.297-2.648c-0.883,0-0.883-0.883-1.766-0.883
			c-1.766-0.883-3.531-1.766-5.297-2.648l-0.883-0.883c-1.766-0.883-3.531-1.766-5.297-3.531v8.828
			c1.766,0.883,3.531,2.648,5.297,3.531l0.883,0.883c1.766,0.883,3.531,1.766,5.297,2.648c0.883,0,0.883,0.883,1.766,0.883
			c1.766,0.883,3.531,1.766,5.297,2.648c0.883,0,0.883,0.883,1.766,0.883c1.766,0.883,3.531,0.883,5.297,1.766
			c0.883,0,0.883,0,1.766,0.883c1.766,0.883,3.531,0.883,5.297,1.766c0.883,0,0.883,0,1.766,0c1.766,0,3.531,0.883,5.297,0.883
			h0.883c8.828,0.883,17.655,0.883,26.483,0h0.883c1.766,0,3.531-0.883,5.297-0.883c0.883,0,0.883,0,1.766,0
			c1.766,0,3.531-0.883,5.297-1.766c0.883,0,0.883,0,1.766-0.883c1.766-0.883,3.531-0.883,5.297-1.766
			c0.883,0,0.883-0.883,1.766-0.883c1.766-0.883,3.531-1.766,5.297-2.648c0.883,0,0.883-0.883,1.766-0.883
			c1.766-0.883,3.531-1.766,5.297-2.648l0.883-0.883c1.766-0.883,3.531-1.766,5.297-3.531v-8.828
			C201.269,275.421,199.503,276.303,197.738,278.069z"/>
	</g>
</g>
<g>
	<path style="fill:#364061;" d="M429.903,200.386l-12.359-12.359c25.6-25.6,25.6-67.972,0-93.572l12.359-12.359
		C462.566,114.759,462.566,167.724,429.903,200.386z"/>
	<polygon style="fill:#364061;" points="203.034,512 300.138,512 282.483,344.276 203.034,317.793 	"/>
	<polygon style="fill:#364061;" points="97.103,317.793 17.655,344.276 0,512 97.103,512 	"/>
</g>
<g>
</g>
<g>
</g>
<g>
</g>
<g>
</g>
<g>
</g>
<g>
</g>
<g>
</g>
<g>
</g>
<g>
</g>
<g>
</g>
<g>
</g>
<g>
</g>
<g>
</g>
<g>
</g>
<g>
</g>
</svg>
