<svg height="512pt" viewBox="0 0 512 512" width="512pt" xmlns="http://www.w3.org/2000/svg"><path d="m91 421h-91l150.589844-139.144531 108.429687 49.363281-168.019531 180.78125zm0 0" fill="#ff6c6c"/><path d="m421 421h91l-150.589844-139.144531-108.429687 49.363281 168.019531 180.78125zm0 0" fill="#ff4949"/><path d="m455.199219 196-41.398438-51.300781 3.300781-71.398438-63.601562-17.101562-36-56.199219-61.5 23.402344-61.5-23.402344-36 56.199219-63.601562 17.101562 3.300781 71.398438-41.398438 51.300781 41.398438 51.300781-3.300781 71.398438 63.601562 17.101562 36 55.199219 61.5-23.402344 61.5 23.402344 36-55.199219 63.601562-17.101562-3.300781-71.398438zm0 0" fill="#fdbf00"/><path d="m413.800781 247.300781 3.300781 71.398438-63.601562 17.101562-36 55.199219-61.5-23.402344v-344.195312l61.5-23.402344 36 56.199219 63.601562 17.101562-3.300781 71.398438 41.398438 51.300781zm0 0" fill="#ff9f00"/><path d="m361 181-105 120-105-120 105-30zm0 0" fill="#76e2f8"/><path d="m361 181-105 120v-150zm0 0" fill="#25d9f8"/><path d="m361 181h-210l30-60h150zm0 0" fill="#a8ebfa"/><path d="m361 181h-105v-60h75zm0 0" fill="#76e2f8"/></svg>