<?xml version="1.0" standalone="no"?><!-- Generator: Gravit.io --><svg xmlns="http://www.w3.org/2000/svg" xmlns:xlink="http://www.w3.org/1999/xlink" style="isolation:isolate" viewBox="0 0 285.999 81.069" width="285.999" height="81.069"><defs><clipPath id="_clipPath_rzyk3hAopWuSnrtTlVzHnoY0WRvgcj7v"><rect width="285.999" height="81.069"/></clipPath></defs><g clip-path="url(#_clipPath_rzyk3hAopWuSnrtTlVzHnoY0WRvgcj7v)"><path d=" M 285.999 47.323 L 285.999 82 L 0 83 L 0 41.536 L 0 40.351 L 0 32.804 C 10.308 29.725 23.595 28.891 31.778 40.351 C 39.352 50.955 46.926 46.154 55.414 41.352 C 63.619 36.711 72.678 32.07 83.416 41.344 C 105.264 60.212 133.069 63.191 145.978 36.379 C 152.286 23.279 155.274 35.544 161.546 47.808 C 168.111 60.646 178.273 73.484 199.603 57.233 C 239.107 27.133 219.812 -32.36 285.999 22.178 L 285.999 41.352 L 285.999 47.323 Z " fill="rgb(255,255,255)"/></g></svg>
