<?xml version="1.0" encoding="iso-8859-1"?>
<!-- Generator: Adobe Illustrator 19.0.0, SVG Export Plug-In . SVG Version: 6.00 Build 0)  -->
<svg version="1.1" id="Capa_1" xmlns="http://www.w3.org/2000/svg" xmlns:xlink="http://www.w3.org/1999/xlink" x="0px" y="0px"
	 viewBox="0 0 512 512" style="enable-background:new 0 0 512 512;" xml:space="preserve">
<path style="fill:#183756;" d="M99.512,424.134C44.641,424.134,0,379.492,0,324.622s44.641-99.512,99.512-99.512
	c54.87,0,99.512,44.64,99.512,99.512S154.382,424.134,99.512,424.134z M99.512,255.586c-38.067,0-69.036,30.969-69.036,69.036
	s30.969,69.036,69.036,69.036c38.066,0,69.036-30.969,69.036-69.036S137.578,255.586,99.512,255.586z"/>
<path style="fill:#091E33;" d="M412.488,424.134c-54.87,0-99.512-44.641-99.512-99.512s44.641-99.512,99.512-99.512
	S512,269.75,512,324.622S467.36,424.134,412.488,424.134z M412.488,255.586c-38.066,0-69.036,30.969-69.036,69.036
	s30.969,69.036,69.036,69.036s69.036-30.969,69.036-69.036S450.555,255.586,412.488,255.586z"/>
<path style="fill:#FFDF80;" d="M426.085,317.352l-76.74-151.664V124.37c0-8.415-6.823-15.238-15.238-15.238
	s-15.238,6.823-15.238,15.238v29.805H166.351l10.708-35.832h37.432c8.415,0,15.238-6.823,15.238-15.238s-6.823-15.238-15.238-15.238
	h-48.782c-6.735,0-12.672,4.422-14.6,10.875L84.912,320.259c-2.41,8.064,2.174,16.554,10.237,18.963
	c1.456,0.435,2.924,0.642,4.369,0.642c6.561,0,12.619-4.271,14.594-10.879l37.526-125.574l93.631,129.739
	c2.878,3.988,7.486,6.321,12.354,6.321c0.016,0,0.031-0.002,0.048-0.002l-0.001,0.002h154.818c5.294,0,10.208-2.748,12.982-7.258
	C428.242,327.702,428.475,322.076,426.085,317.352z M255.172,294.794l-79.489-110.143h133.9L255.172,294.794z M282.193,308.994
	l52.121-105.507L387.7,308.994H282.193z"/>
<path style="fill:#FFB042;" d="M349.345,165.687v-41.319c0-8.415-6.823-15.238-15.238-15.238s-15.238,6.823-15.238,15.238v29.805
	H256v30.476h53.583L256,293.117v46.256c0.537,0.058,1.078,0.097,1.623,0.097c0.016,0,0.031-0.002,0.048-0.002l-0.001,0.002h154.818
	c5.294,0,10.208-2.748,12.982-7.258c2.772-4.509,3.005-10.136,0.615-14.86L349.345,165.687z M282.193,308.994l52.121-105.507
	L387.7,308.994H282.193z"/>
<path style="fill:#B34F03;" d="M356.746,139.608h-45.278c-8.415,0-15.238-6.823-15.238-15.238s6.823-15.238,15.238-15.238h45.278
	c8.415,0,15.238,6.823,15.238,15.238S365.162,139.608,356.746,139.608z"/>
<g>
</g>
<g>
</g>
<g>
</g>
<g>
</g>
<g>
</g>
<g>
</g>
<g>
</g>
<g>
</g>
<g>
</g>
<g>
</g>
<g>
</g>
<g>
</g>
<g>
</g>
<g>
</g>
<g>
</g>
</svg>
